<?xml version="1.0" encoding="UTF-8"?>
<svg width="181px" height="20px" viewBox="0 0 181 20" version="1.1" xmlns="http://www.w3.org/2000/svg" xmlns:xlink="http://www.w3.org/1999/xlink">
    <title>yahoo sportsbook _ betmgm horizontal</title>
    <g id="Page-1" stroke="none" stroke-width="1" fill="none" fill-rule="evenodd">
        <g id="yahoo-sportsbook-_-betmgm-horizontal" transform="translate(0.000000, 1.000000)">
            <g id="group" transform="translate(0.000000, 2.000000)" fill="#FFFFFF" fill-rule="nonzero">
                <path d="M49.543,8.352 C49.543,7.312 48.883,6.66 47.34,6.26 L46.984,6.167 L46.689,6.086 C46.369,5.994 46.245,5.934 46.245,5.807 C46.245,5.621 46.377,5.541 46.733,5.541 C47.261,5.541 47.96,5.767 48.646,6.141 L49.477,4.435 C48.554,3.915 47.67,3.649 46.707,3.649 C44.992,3.649 43.87,4.542 43.87,5.914 C43.87,7.024 44.529,7.634 46.019,7.996 L46.456,8.099 C46.957,8.219 47.156,8.285 47.156,8.472 C47.156,8.672 46.957,8.752 46.601,8.752 C45.955,8.752 45.124,8.485 44.477,8.072 L43.527,9.764 C44.319,10.337 45.44,10.67 46.587,10.67 C48.382,10.67 49.543,9.804 49.543,8.352 L49.543,8.352 Z M50.533,3.822 L50.533,13.254 L52.933,13.254 L52.933,9.764 C53.395,10.364 54.108,10.656 54.926,10.656 C56.641,10.656 57.96,9.124 57.96,7.153 C57.96,5.168 56.64,3.649 54.926,3.649 C54.108,3.649 53.408,3.982 52.933,4.582 L52.933,3.822 L50.533,3.822 Z M55.546,7.152 C55.546,7.886 54.939,8.485 54.213,8.485 C53.474,8.485 52.868,7.885 52.868,7.153 C52.868,6.42 53.474,5.821 54.213,5.821 C54.939,5.821 55.546,6.421 55.546,7.153 L55.546,7.152 Z M62.392,3.636 C60.308,3.636 58.738,5.141 58.738,7.153 C58.738,9.164 60.308,10.67 62.392,10.67 C64.477,10.67 66.047,9.164 66.047,7.153 C66.047,5.141 64.477,3.636 62.392,3.636 Z M62.392,5.847 C63.079,5.847 63.685,6.42 63.685,7.153 C63.685,7.886 63.079,8.458 62.392,8.458 C61.706,8.458 61.1,7.886 61.1,7.153 C61.1,6.42 61.706,5.847 62.392,5.847 Z M71.693,3.716 C71.627,3.689 71.483,3.663 71.337,3.663 C70.493,3.663 69.886,4.103 69.53,4.875 L69.53,3.822 L67.142,3.822 L67.142,10.483 L69.542,10.483 L69.542,8.06 C69.542,6.82 70.11,6.128 71.112,6.128 C71.311,6.128 71.522,6.155 71.693,6.221 L71.693,3.716 Z M73.223,1.918 L73.223,3.822 L72.34,3.822 L72.34,5.781 L73.224,5.781 L73.224,8.152 C73.224,9.737 74.147,10.656 75.611,10.656 C76.351,10.656 76.851,10.51 77.168,10.35 L77.168,8.3 C76.957,8.42 76.693,8.5 76.456,8.5 C75.915,8.5 75.625,8.246 75.625,7.58 L75.625,5.781 L77.168,5.781 L77.168,3.822 L75.625,3.822 L75.625,1.918 L73.224,1.918 L73.223,1.918 Z M83.791,8.352 C83.791,7.312 83.131,6.66 81.588,6.26 L81.231,6.167 L80.937,6.086 C80.617,5.994 80.493,5.934 80.493,5.807 C80.493,5.621 80.624,5.541 80.981,5.541 C81.508,5.541 82.208,5.767 82.894,6.141 L83.724,4.435 C82.801,3.915 81.917,3.649 80.954,3.649 C79.239,3.649 78.118,4.542 78.118,5.914 C78.118,7.024 78.776,7.634 80.266,7.996 L80.704,8.099 C81.204,8.219 81.403,8.285 81.403,8.472 C81.403,8.672 81.205,8.752 80.849,8.752 C80.202,8.752 79.371,8.485 78.725,8.072 L77.775,9.764 C78.566,10.337 79.688,10.67 80.835,10.67 C82.63,10.67 83.791,9.804 83.791,8.352 Z M87.181,10.483 L87.181,9.763 C87.643,10.363 88.355,10.656 89.173,10.656 C90.888,10.656 92.207,9.124 92.207,7.153 C92.207,5.168 90.888,3.649 89.173,3.649 C88.355,3.649 87.656,3.982 87.181,4.582 L87.181,1.158 L84.781,1.158 L84.781,10.483 L87.181,10.483 L87.181,10.483 Z M89.793,7.153 C89.793,7.886 89.186,8.485 88.461,8.485 C87.722,8.485 87.115,7.885 87.115,7.153 C87.115,6.42 87.722,5.821 88.461,5.821 C89.186,5.821 89.793,6.421 89.793,7.153 Z M96.64,3.636 C94.556,3.636 92.986,5.141 92.986,7.153 C92.986,9.164 94.556,10.67 96.64,10.67 C98.725,10.67 100.294,9.164 100.294,7.153 C100.294,5.141 98.724,3.636 96.64,3.636 Z M96.64,5.847 C97.326,5.847 97.933,6.42 97.933,7.153 C97.933,7.886 97.326,8.458 96.64,8.458 C95.954,8.458 95.347,7.886 95.347,7.153 C95.347,6.42 95.954,5.847 96.64,5.847 Z M104.727,3.636 C102.643,3.636 101.073,5.141 101.073,7.153 C101.073,9.164 102.643,10.67 104.727,10.67 C106.812,10.67 108.381,9.164 108.381,7.153 C108.381,5.141 106.811,3.636 104.727,3.636 Z M104.727,5.847 C105.413,5.847 106.02,6.42 106.02,7.153 C106.02,7.886 105.413,8.458 104.727,8.458 C104.041,8.458 103.434,7.886 103.434,7.153 C103.434,6.42 104.041,5.847 104.727,5.847 Z M113.698,3.822 L116.508,3.822 L113.962,6.846 L116.653,10.483 L113.803,10.483 L111.877,7.766 L111.877,10.483 L109.477,10.483 L109.477,1.158 L111.877,1.158 L111.877,6.048 L113.698,3.822 Z" id="Shape" fill-opacity="0.7"></path>
                <path d="M12.808,3.79 L12.808,4.427 C12.352,3.894 11.677,3.6 10.976,3.627 C9.122,3.627 7.741,5.266 7.741,7.187 C7.741,9.165 9.116,10.75 10.976,10.75 C11.681,10.785 12.361,10.483 12.808,9.937 L12.808,10.574 L15.125,10.574 L15.125,3.79 L12.808,3.79 Z M15.922,0.785 L15.922,10.574 L18.32,10.574 L18.32,6.959 C18.32,6.253 18.657,5.834 19.2,5.834 C19.743,5.834 20.025,6.2 20.025,6.876 L20.025,10.574 L22.412,10.574 L22.412,6.308 C22.412,4.656 21.519,3.628 20.084,3.628 C19.391,3.602 18.728,3.908 18.297,4.453 L18.297,0.787 L15.922,0.785 Z M37.844,7.199 C37.844,9.231 36.286,10.762 34.214,10.762 C32.144,10.762 30.586,9.232 30.586,7.199 C30.586,5.167 32.144,3.639 34.215,3.639 C36.285,3.639 37.844,5.169 37.844,7.199 L37.844,7.199 Z M30.18,7.199 C30.18,9.231 28.623,10.762 26.552,10.762 C24.481,10.762 22.922,9.232 22.922,7.199 C22.922,5.167 24.481,3.639 26.552,3.639 C28.622,3.639 30.18,5.169 30.18,7.199 Z M0,3.79 L2.898,10.627 L1.856,13.092 L4.4,13.092 L8.259,3.79 L5.727,3.79 L4.158,7.77 L2.6,3.79 L0,3.79 Z M11.468,8.583 C10.698,8.583 10.073,7.958 10.073,7.188 C10.073,6.418 10.698,5.793 11.468,5.793 C12.238,5.793 12.863,6.417 12.863,7.188 C12.869,7.56 12.723,7.918 12.461,8.181 C12.198,8.443 11.84,8.589 11.468,8.583 Z M27.91,7.188 C27.899,6.443 27.288,5.848 26.543,5.855 C25.798,5.862 25.199,6.47 25.2029604,7.215 C25.206,7.96 25.811,8.562 26.556,8.562 C26.92,8.568 27.271,8.424 27.526,8.164 C27.782,7.904 27.921,7.552 27.91,7.188 Z M35.573,7.188 C35.562,6.443 34.951,5.848 34.206,5.855 C33.461,5.862 32.862,6.47 32.8659604,7.215 C32.869,7.96 33.474,8.562 34.219,8.562 C34.584,8.568 34.934,8.424 35.189,8.164 C35.445,7.904 35.584,7.552 35.573,7.188 Z M38.146,9.138 C38.141,9.552 38.303,9.951 38.596,10.244 C38.89,10.538 39.289,10.7 39.704,10.695 C40.589,10.695 41.307,9.977 41.307,9.092 C41.314,8.676 41.152,8.276 40.859,7.982 C40.565,7.689 40.165,7.527 39.749,7.534 C38.864,7.534 38.146,8.252 38.146,9.137 L38.146,9.138 Z M41.557,0.784 L39.007,6.93 L41.85,6.93 L44.405,0.785 L41.557,0.785 L41.557,0.784 Z" id="Shape"></path>
            </g>
            <line x1="122" y1="1.13686838e-13" x2="122" y2="18" id="Line-2" stroke="#717171" stroke-linecap="square"></line>
            <g id="betMgmSecondaryHorizontalGlDbk" transform="translate(127.000000, 1.000000)" fill="#FFFFFF" fill-rule="nonzero">
                <g id="Group" transform="translate(16.000000, 5.000000)">
                    <path d="M5.641,4.372 C5.641,5.345 4.922,5.9 3.494,5.9 L0.864,5.9 L0.864,0.184 L3.33,0.184 C4.604,0.184 5.34,0.724 5.34,1.654 C5.34,2.307 4.988,2.74 4.465,2.952 C5.2,3.115 5.641,3.596 5.641,4.372 L5.641,4.372 Z M1.468,0.682 L1.468,2.756 L3.29,2.756 C4.204,2.756 4.735,2.405 4.735,1.72 C4.734,1.032 4.204,0.682 3.289,0.682 L1.467,0.682 L1.467,0.681 L1.468,0.682 Z M5.038,4.322 C5.038,3.579 4.49,3.252 3.486,3.252 L1.467,3.252 L1.467,5.3990181 L3.485,5.3990181 C4.489,5.401 5.036,5.073 5.036,4.322 L5.038,4.322 Z M10.602,5.377 L10.602,5.9 L6.559,5.9 L6.559,0.184 L10.479,0.184 L10.479,0.707 L7.164,0.707 L7.164,2.74 L10.12,2.74 L10.12,3.255 L7.164,3.255 L7.164,5.378 L10.602,5.378 L10.602,5.377 Z M13.133,0.706 L11.123,0.706 L11.123,0.183 L15.745,0.183 L15.745,0.706 L13.736,0.706 L13.736,5.9 L13.131,5.9 L13.131,0.706 L13.133,0.706 Z" id="Shape"></path>
                    <path d="M21.511,5.899 L21.495,2.869 L20.025,5.336 L19.306,5.336 L17.844,2.951 L17.844,5.899 L16.35,5.899 L16.35,0.183 L17.682,0.183 L19.691,3.482 L21.651,0.183 L22.982,0.183 L22.998,5.899 L21.511,5.899 Z M27.97,2.919 L29.4,2.919 L29.4,5.287 C28.739,5.761 27.832,6.014 27,6.014 C25.178,6.014 23.847,4.782 23.847,3.042 C23.847,1.302 25.178,0.07 27.033,0.07 C28.103,0.07 28.968,0.438 29.531,1.115 L28.503,2.045 C28.111,1.613 27.662,1.409 27.115,1.409 C26.135,1.409 25.481,2.054 25.481,3.042 C25.481,4.006 26.134,4.676 27.098,4.676 C27.4,4.676 27.686,4.618 27.973,4.488 L27.973,2.919 L27.97,2.919 L27.97,2.919 Z M35.59,5.899 L35.574,2.869 L34.104,5.336 L33.385,5.336 L31.923,2.951 L31.923,5.899 L30.429,5.899 L30.429,0.183 L31.759,0.183 L33.768,3.482 L35.728,0.183 L37.059,0.183 L37.075,5.899 L35.59,5.899 Z" id="Shape"></path>
                </g>
                <g id="Group">
                    <path d="M0.888,6.766 C0.888,8.021 1.091,9.195 1.738,10.166 L1.738,9.316 C1.738,8.264 2.588,7.536 3.438,7.05 C2.548,7.373 1.577,7.172 0.888,6.766 M1.617,5.876 L1.334,5.876 C1.294,5.713 1.738,5.43 1.86,5.633 L1.617,5.876 L1.617,5.876 Z M0.727,5.755 C0.97,5.917 1.293,5.998 1.657,5.958 C1.941,6.16 2.345,5.593 2.751,5.593 C3.358,5.513 4.127,5.431 4.531,5.958 L4.329,5.553 C3.762,5.513 3.276,5.31 2.831,5.067 C1.941,4.662 1.495,5.957 0.726,5.755 M0.2,3.69 C0.483,3.771 0.767,3.853 1.05,3.853 C1.657,3.61 1.82,3.123 1.577,2.476 C1.213,1.95 0.727,1.666 0.2,1.546 L0.2,3.69 Z M4.248,15.186 C4.328,15.106 4.451,14.983 4.532,14.862 C6.152,12.758 2.994,11.544 3.074,9.519 C3.154,8.709 3.601,8.103 4.127,7.455 L4.087,7.415 C3.601,7.901 3.399,8.225 3.075,8.71 C2.105,10.693 3.48,13.446 2.064,15.146 L4.248,15.186 Z M10.806,8.062 C10.806,10.977 9.43,13.527 7.285,15.187 L14.409,15.187 L14.409,0.937 L7.284,0.937 C9.43,2.557 10.806,5.147 10.806,8.062" id="Shape"></path>
                    <path d="M0.2,15.186 L1.414,15.186 L1.698,14.903 C3.358,12.636 1.374,11.057 0.16,9.276 L0.2,15.186 Z M3.56,0.937 L0.2,0.937 L0.2,1.18 C0.524,1.22 0.888,1.343 1.171,1.464 C1.859,1.868 2.385,2.516 2.305,3.325 L3.802,3.163 C4.005,2.677 4.086,1.908 3.883,1.503 C3.803,1.261 3.681,1.059 3.56,0.937 M4.248,0.937 C4.572,1.383 4.572,1.949 4.612,2.394 C5.219,1.949 5.949,1.665 6.717,1.868 C6.19,1.464 5.827,1.138 5.179,0.897 L4.249,0.937 L4.248,0.937 Z M7.244,8.183 L7.122,8.507 L6.96,8.103 C6.596,8.183 6.23,8.305 6.03,8.71 C5.989,8.83 6.07,9.033 5.949,9.114 C5.705,9.074 5.828,8.668 5.828,8.426 C6.111,8.143 6.88,7.536 7.164,7.779 C7.244,7.819 7.284,8.022 7.244,8.183 M5.624,11.098 C5.422,10.935 5.504,10.652 5.504,10.45 L5.624,10.33 C5.828,10.977 6.354,10.208 6.758,10.289 C6.961,10.209 6.879,9.925 7.082,9.965 C7.406,10.977 6.192,10.774 5.625,11.098 M8.539,11.22 C8.702,9.884 8.579,8.467 7.609,7.536 C7.406,7.496 7.122,7.616 6.961,7.415 C6.515,7.819 5.95,7.982 5.544,8.426 C5.098,8.547 4.654,8.264 4.208,8.183 L4.208,8.021 C3.601,8.425 3.762,9.235 3.641,9.842 C3.803,10.53 4.571,10.813 5.058,11.219 C5.828,11.339 6.515,11.016 7.163,10.773 C7.283,10.893 7.446,10.976 7.365,11.137 C6.839,11.867 6.071,12.19 5.179,12.108 C5.705,13.119 5.341,14.295 4.775,15.185 L5.301,15.185 C6.92,14.458 8.417,13.325 8.539,11.22" id="Shape"></path>
                    <path d="M9.714,5.755 C9.267,4.217 7.892,2.152 6.069,2.273 C5.382,2.313 4.693,2.84 4.449,3.245 C4.936,3.528 5.461,3.932 5.907,4.338 C5.867,4.5 5.987,4.702 5.787,4.784 C5.543,4.581 5.34,4.096 5.017,4.257 C5.26,4.784 5.907,4.824 6.393,4.945 C6.596,5.148 6.514,5.471 6.92,5.309 C7.122,5.349 7.203,5.592 7.243,5.755 C6.92,6.362 6.029,5.958 5.543,6.078 C5.947,6.241 6.393,6.281 6.757,6.524 C7.121,6.767 7.243,6.201 7.405,5.998 C8.052,6.16 7.688,6.848 7.971,7.212 C9.348,8.629 9.065,11.139 8.376,12.758 C10.28,11.098 10.118,7.293 9.713,5.755" id="Path"></path>
                </g>
            </g>
        </g>
    </g>
</svg>